<?xml version="1.0" encoding="utf-8"?>
<!-- Generator: Adobe Illustrator 25.0.1, SVG Export Plug-In . SVG Version: 6.00 Build 0)  -->
<svg version="1.1" id="Layer_1" xmlns="http://www.w3.org/2000/svg" xmlns:xlink="http://www.w3.org/1999/xlink" x="0px" y="0px"
	 viewBox="0 0 257.9 79.3" style="enable-background:new 0 0 257.9 79.3;" xml:space="preserve">
<g>
	<g>
		<g>
			<path d="M88.3,25.7v14.9l6.6-7.8h4.5l-6,6.7l6.2,11.7h-3.8l-4.6-9.3l-2.8,3.2v6.1H85V25.7H88.3z"/>
			<path d="M105,33.2c1.3-0.6,2.5-0.9,3.8-0.9c2.5,0,5,1.2,5.9,3.7c0.3,0.8,0.4,1.9,0.4,3.1v12.1h-3.4v-2.1
				c-1.6,1.4-3.5,2.4-5.7,2.4c-3.1,0-5.2-2.2-5.2-5.2c0-2.8,1.9-4.9,4.4-5.9c1-0.4,3.2-1,6.5-1.8V38c0-1.5-1.1-2.6-2.6-2.6
				c-2.3,0-4.2,1.7-5.7,3.1l-2.5-2.2C102.3,35,103.4,34,105,33.2z M111.8,41.6c-2,0.5-3.4,0.9-4.1,1.2c-1.5,0.6-3.2,1.6-3.2,3.5
				c0,1.3,0.9,2,2.2,2c1.8,0,3.7-1.2,5.1-2.2V41.6z"/>
			<path d="M122.3,32.7v11.9c0,1.4,0.6,3.4,2.4,3.4s3.7-1.5,5-2.6V32.7h3.4v18.5h-3.4V49c-1.5,1.2-3.6,2.5-5.6,2.5
				c-3.7,0-5.2-3.2-5.2-6.4V32.7H122.3z"/>
			<path d="M141.2,25.7v8.5c1.4-1.1,3.2-1.8,5-1.8c5.1,0,7.4,5.2,7.4,9.6c0,4.5-2.2,9.6-7.4,9.6c-1.9,0-3.4-0.8-4.9-1.9v1.6h-3.4
				V25.7H141.2z M143.7,47.7c0.7,0.3,1.5,0.5,2.2,0.5c3.3,0,4.2-3.7,4.2-6.4c0-2.8-1-6.2-4.4-6.2c-1.8,0-3.4,1-4.6,2.2V46
				C142.2,46.9,143,47.4,143.7,47.7z"/>
			<path d="M181.1,33c0.9-0.4,1.8-0.6,2.7-0.6c2,0,3.3,1,4.1,2.8c2-1.4,3.9-2.8,6.4-2.8c1.3,0,2.3,0.4,3.2,1.2
				c1.1,1.1,1.6,2.5,1.6,4.2v13.5h-3.4V38.4c0-1.1-0.6-2.7-2-2.7c-1.8,0-4,1.7-5.3,2.7v12.8H185V38.4c0-1.1-0.5-2.7-1.8-2.7
				c-1.9,0-4,1.6-5.5,2.7v12.8h-3.4V32.7h3.4v2.2C179.2,34,180.3,33.3,181.1,33z"/>
			<path d="M224.7,26.4v3.5h-3.4v-3.5H224.7z M224.7,32.7v19.9c0,2.7-1.4,5.5-4.4,5.5c-0.5,0-0.9-0.1-1.4-0.1v-3.5
				c0.3,0.1,0.7,0.1,1.2,0.1c0.4,0,0.6-0.2,0.8-0.4c0.3-0.4,0.5-0.9,0.5-1.6V32.7H224.7z"/>
			<path d="M159.8,33.2c1.3-0.6,2.5-0.9,3.8-0.9c2.5,0,5,1.2,5.9,3.7c0.3,0.8,0.4,1.9,0.4,3.1v12.1h-3.4v-2.1
				c-1.6,1.4-3.5,2.4-5.7,2.4c-3.1,0-5.2-2.2-5.2-5.2c0-2.8,1.9-4.9,4.4-5.9c1-0.4,3.2-1,6.5-1.8V38c0-1.5-1.1-2.6-2.6-2.6
				c-2.2,0-4.2,1.7-5.7,3.1l-2.4-2.2C157,35,158.1,34,159.8,33.2z M166.6,41.6c-2,0.5-3.4,0.9-4.1,1.2c-1.5,0.6-3.2,1.6-3.2,3.5
				c0,1.3,0.9,2,2.2,2c1.8,0,3.7-1.2,5.1-2.2V41.6z"/>
			<path d="M206.5,33.2c1.3-0.6,2.5-0.9,3.8-0.9c2.5,0,5,1.2,5.9,3.7c0.3,0.8,0.4,1.9,0.4,3.1v12.1h-3.4v-2.1
				c-1.6,1.4-3.5,2.4-5.7,2.4c-3.1,0-5.2-2.2-5.2-5.2c0-2.8,1.9-4.9,4.4-5.9c1-0.4,3.2-1,6.5-1.8V38c0-1.5-1.1-2.6-2.6-2.6
				c-2.2,0-4.2,1.7-5.7,3.1l-2.5-2.2C203.7,35,204.9,34,206.5,33.2z M213.3,41.6c-2,0.5-3.4,0.9-4.1,1.2c-1.5,0.6-3.2,1.6-3.2,3.5
				c0,1.3,0.9,2,2.2,2c1.8,0,3.7-1.2,5.1-2.2V41.6z"/>
			<path d="M232.3,33.2c1.3-0.6,2.5-0.9,3.8-0.9c2.5,0,5,1.2,5.9,3.7c0.3,0.8,0.4,1.9,0.4,3.1v12.1H239v-2.1
				c-1.6,1.4-3.6,2.4-5.7,2.4c-3.1,0-5.2-2.2-5.2-5.2c0-2.8,1.9-4.9,4.4-5.9c1-0.4,3.2-1,6.5-1.8V38c0-1.5-1.1-2.6-2.6-2.6
				c-2.2,0-4.2,1.7-5.7,3.1l-2.4-2.2C229.5,35.1,230.6,34,232.3,33.2z M239.1,41.6c-2,0.5-3.4,0.9-4.1,1.2c-1.5,0.6-3.2,1.6-3.2,3.5
				c0,1.3,0.9,2,2.2,2c1.8,0,3.7-1.2,5.1-2.2V41.6z"/>
		</g>
		<path d="M41.6,11c15.8,0,28.6,12.8,28.6,28.6S57.4,68.2,41.6,68.2C25.8,68.1,13,55.4,13,39.6S25.8,11,41.6,11z M30,60.7V18.4
			c-7.5,4.1-12.5,12-12.5,21.2C17.5,48.7,22.5,56.6,30,60.7z M41.3,42.7l-6.8,6.9v13c2.3,0.7,4.6,1.1,7.1,1.1c5.8,0,11.1-2,15.3-5.4
			L41.3,42.7z M60,24.1L44.5,39.6L60,55.1c3.5-4.2,5.7-9.6,5.7-15.5S63.5,28.3,60,24.1z M34.5,43.3l22.4-22.4
			c-4.2-3.4-9.5-5.5-15.3-5.5c-2.5,0-4.8,0.4-7.1,1.1C34.5,16.5,34.5,43.3,34.5,43.3z"/>
	</g>
</g>
</svg>
