<?xml version="1.0" encoding="UTF-8"?>
<svg version="1.1" viewBox="0 0 215 61" xmlns="http://www.w3.org/2000/svg">
<path d="m46.376 11.553c-0.0416-0.303-0.3063-0.4711-0.526-0.4894-0.218-0.0183-4.4894-0.0832-4.4894-0.0832s-3.5723-3.469-3.9252-3.822c-0.3528-0.35289-1.042-0.24636-1.31-0.16646-0.0033 0.00167-0.6708 0.20808-1.7944 0.55598-0.1881-0.60924-0.4645-1.3583-0.859-2.1107-1.2717-2.427-3.1344-3.7104-5.385-3.7137h-0.0083c-0.1565 0-0.3113 0.01498-0.4677 0.02829-0.0666-0.0799-0.1332-0.15813-0.2031-0.23471-0.9805-1.0487-2.2372-1.5597-3.7437-1.5148-2.9064 0.08323-5.8011 2.1823-8.1482 5.911-1.6513 2.6234-2.9081 5.9194-3.2643 8.4712-3.3376 1.0337-5.6713 1.7561-5.7229 1.7728-1.6846 0.5293-1.7378 0.5809-1.9576 2.169-0.16313 1.2001-4.571 35.285-4.571 35.285l36.939 6.3887 16.01-3.9801s-6.5319-44.164-6.5735-44.466zm-13.894-3.4324c-0.8506 0.26301-1.8178 0.56264-2.8665 0.88724-0.0216-1.4715-0.1964-3.519-0.8822-5.2884 2.2056 0.41782 3.2909 2.9131 3.7487 4.4012zm-4.7991 1.4865c-1.9359 0.59922-4.0483 1.2534-6.1673 1.9093 0.5959-2.2822 1.7262-4.5544 3.1145-6.0442 0.516-0.55431 1.2384-1.1719 2.094-1.5248 0.804 1.6779 0.9788 4.0533 0.9588 5.6596zm-3.9601-7.6705c0.6825-0.01498 1.2568 0.13484 1.7479 0.45777-0.7857 0.40783-1.5448 0.99377-2.2572 1.7578-1.8461 1.9809-3.261 5.0554-3.8253 8.0217-1.7595 0.5443-3.4807 1.0787-5.0654 1.5681 1.0005-4.6692 4.9139-11.676 9.4-11.805z" fill="#95BF47"/>
<path d="m45.851 11.066c-0.218-0.0183-4.4894-0.0832-4.4894-0.0832s-3.5722-3.4691-3.9251-3.822c-0.1315-0.13151-0.3096-0.19976-0.4961-0.22805l0.0017 53.066 16.008-3.9784s-6.5319-44.162-6.5735-44.465c-0.0417-0.303-0.308-0.4711-0.5261-0.4894z" fill="#5E8E3E"/>
<path d="m28.067 19.297-1.8593 6.9563s-2.0741-0.9438-4.5327-0.789c-3.6056 0.2281-3.6439 2.5019-3.6072 3.0729 0.1964 3.1111 8.3812 3.7903 8.8407 11.078 0.3612 5.7329-3.0413 9.6547-7.9435 9.9643-5.8844 0.3712-9.1237-3.0995-9.1237-3.0995l1.2468-5.3034s3.2609 2.4603 5.871 2.2955c1.7046-0.1082 2.3138-1.4948 2.2522-2.4753-0.2563-4.0583-6.9214-3.8186-7.3425-10.487-0.3546-5.6113 3.3309-11.298 11.462-11.81 3.1328-0.2014 4.7358 0.5976 4.7358 0.5976z" fill="#fff"/>
<path d="m74.032 33.864c-1.8409-0.9989-2.787-1.8409-2.787-2.9983 0-1.4727 1.3142-2.4188 3.3665-2.4188 2.389 0 4.5221 0.9989 4.5221 0.9989l1.6824-5.1545s-1.547-1.2102-6.1005-1.2102c-6.3367 0-10.728 3.6289-10.728 8.7306 0 2.8926 2.0506 5.1017 4.7863 6.6784 2.2091 1.2614 2.9983 2.1563 2.9983 3.4705 0 1.3671-1.1045 2.4716-3.1551 2.4716-3.0561 0-5.9421-1.5784-5.9421-1.5784l-1.788 5.1545s2.6664 1.7881 7.1522 1.7881c6.5216 0 11.202-3.208 11.202-8.9932-0.0017-3.1006-2.3676-5.3097-5.209-6.9392z"/>
<path d="m100.01 23.03c-3.2082 0-5.7326 1.5256-7.6775 3.8387l-0.1057-0.0529 2.7869-14.567h-7.2579l-7.0466 37.076h7.2579l2.4188-12.673c0.946-4.7863 3.4176-7.7301 5.7324-7.7301 1.6295 0 2.2619 1.1045 2.2619 2.6829 0 0.9989-0.1057 2.2091-0.3154 3.208l-2.7341 14.514h7.2583l2.839-14.988c0.316-1.5784 0.527-3.4704 0.527-4.7335-3e-3 -4.1028-2.159-6.5744-5.945-6.5744z"/>
<path d="m122.36 23.03c-8.731 0-14.514 7.8887-14.514 16.67 0 5.6267 3.47 10.149 9.992 10.149 8.572 0 14.357-7.6773 14.357-16.67 0-5.2057-3.051-10.149-9.835-10.149zm-3.576 21.247c-2.472 0-3.524-2.1034-3.524-4.7335 0-4.154 2.157-10.938 6.101-10.938 2.577 0 3.417 2.209 3.417 4.3653 0 4.4693-2.154 11.306-5.994 11.306z"/>
<path d="m150.76 23.03c-4.899 0-7.679 4.3125-7.679 4.3125h-0.104l0.421-3.8915h-6.416c-0.315 2.6301-0.895 6.6256-1.472 9.6239l-5.049 26.557h7.258l1.997-10.728h0.159s1.489 0.9461 4.26 0.9461c8.519 0 14.093-8.729 14.093-17.565 0-4.8887-2.157-9.2541-7.468-9.2541zm-6.942 21.351c-1.884 0-2.999-1.0517-2.999-1.0517l1.21-6.784c0.842-4.5222 3.208-7.5205 5.733-7.5205 2.209 0 2.892 2.0506 2.892 3.9972 0 4.6806-2.787 11.359-6.836 11.359z"/>
<path d="m168.59 12.617c-2.313 0-4.154 1.8409-4.154 4.2068 0 2.1563 1.367 3.629 3.418 3.629h0.105c2.262 0 4.207-1.5256 4.26-4.2068 0-2.1035-1.42-3.629-3.629-3.629z"/>
<path d="m158.44 49.324h7.256l4.945-25.715h-7.311l-4.89 25.715z"/>
<path d="m189.1 23.556h-5.049l0.262-1.2102c0.421-2.4716 1.894-4.6807 4.313-4.6807 1.291 0 2.313 0.3682 2.313 0.3682l1.42-5.6795s-1.262-0.6307-3.945-0.6307c-2.577 0-5.152 0.7363-7.099 2.4187-2.472 2.1035-3.629 5.1529-4.207 8.204l-0.209 1.2102h-3.367l-1.052 5.4699h3.367l-3.839 20.299h7.258l3.839-20.299h4.996l0.999-5.4699z"/>
<path d="m206.56 23.609s-4.537 11.43-6.574 17.669h-0.106c-0.138-2.0093-1.788-17.669-1.788-17.669h-7.626l4.367 23.611c0.106 0.5251 0.053 0.8421-0.158 1.2102-0.843 1.6296-2.262 3.208-3.945 4.3654-1.367 0.9988-2.892 1.6295-4.101 2.0505l1.998 6.1534c1.473-0.3153 4.522-1.5255 7.099-3.9443 3.314-3.1023 6.363-7.8886 9.518-14.41l8.888-19.038h-7.572v0.0017z"/>
</svg>
